<svg id="DE" xmlns="http://www.w3.org/2000/svg" viewBox="0 0 200 200"><defs><style>.cls-1{fill:#f8cc37;}.cls-2{fill:#fff;}</style></defs><circle class="cls-1" cx="96.06" cy="86.59" r="77.95"/><path class="cls-2" d="M143.59,133.89h-56s-13.78,10.58-20.92,15.75c0-2.95,2.22-15.75,2.22-15.75H59.16a5.74,5.74,0,0,1-5.73-5.73L51.21,44.73A5.75,5.75,0,0,1,56.94,39l86.85,6.85a5.66,5.66,0,0,1,5.62,5.73v76.58A5.83,5.83,0,0,1,143.59,133.89Z"/><path d="M61.92,145.76a1.39,1.39,0,0,1-.63-.15,1.37,1.37,0,0,1-.75-1.22c0-2.42,1.36-10.81,2-14.38H54.38a7.11,7.11,0,0,1-7.1-7.11L45.06,39.51a7.13,7.13,0,0,1,7.11-7.14h.11l86.79,6.84a7.1,7.1,0,0,1,7,7.1V122.9a7.29,7.29,0,0,1-7.28,7.11H83.3c-2.25,1.72-14.16,10.84-20.58,15.49A1.39,1.39,0,0,1,61.92,145.76ZM52.12,35.12a4.37,4.37,0,0,0-4.31,4.36L50,122.87a4.38,4.38,0,0,0,4.36,4.39h9.75a1.36,1.36,0,0,1,1.05.49,1.35,1.35,0,0,1,.31,1.12c-.46,2.65-1.47,8.76-1.94,12.62,7.35-5.43,18.33-13.85,18.45-14a1.41,1.41,0,0,1,.84-.28h56a4.51,4.51,0,0,0,4.53-4.36V46.32A4.34,4.34,0,0,0,139,42h-.11Z"/><rect x="81.51" y="145.99" width="96.18" height="21.05"/><rect x="81.51" y="170.31" width="100.39" height="21.05"/><path d="M79.33,70.75a9.85,9.85,0,0,1-1.59.29,11.42,11.42,0,0,1-1.78,0,6.66,6.66,0,0,1-3.09-.84A5.83,5.83,0,0,1,70.8,68.1a10.57,10.57,0,0,1-1.18-3.38,26.15,26.15,0,0,1-.41-4.53,24.68,24.68,0,0,1,.31-4.48,10.16,10.16,0,0,1,1.13-3.34,5.2,5.2,0,0,1,2.08-2,5.81,5.81,0,0,1,3.12-.55,11.51,11.51,0,0,1,1.77.24,9.59,9.59,0,0,1,1.31.38c.1,0,.16.12.16.28l-.1,2a.22.22,0,0,1-.06.13s-.1,0-.18,0a8.72,8.72,0,0,0-1.17-.33,9.75,9.75,0,0,0-1.28-.17,3.74,3.74,0,0,0-2.06.37,3.16,3.16,0,0,0-1.31,1.45,8,8,0,0,0-.67,2.56,30.39,30.39,0,0,0-.16,3.66,29,29,0,0,0,.24,3.53,8.52,8.52,0,0,0,.72,2.54A3.78,3.78,0,0,0,74.38,68a4,4,0,0,0,2.1.61,6.63,6.63,0,0,0,1.28,0c.38,0,.76-.12,1.15-.2a1.13,1.13,0,0,1,.26,0c.09,0,.13.07.14.18l.14,1.89C79.45,70.63,79.41,70.74,79.33,70.75Z"/><path d="M91.1,51.44c0-.2.1-.29.3-.28l2.14.15a.3.3,0,0,1,.31.32L94,71.38a.25.25,0,0,1-.3.29l-2.13-.11a.28.28,0,0,1-.3-.31l-.08-8.91a.18.18,0,0,0-.18-.2l-5.85-.34c-.12,0-.18.05-.18.17l.09,9c0,.2-.1.29-.3.28l-2.13-.1a.28.28,0,0,1-.3-.32l-.2-20c0-.2.09-.29.3-.28l2.13.15c.21,0,.31.12.31.32L85,59.31a.18.18,0,0,0,.18.2l5.85.35c.12,0,.18,0,.18-.17Z"/><path d="M97.93,51.92c0-.2.1-.29.3-.28l8.15.57a.29.29,0,0,1,.3.32v1.8q0,.3-.3.27l-5.58-.37c-.12,0-.18,0-.18.16l0,5.89a.18.18,0,0,0,.18.19l5.21.31a.29.29,0,0,1,.3.32v1.62c0,.2-.1.29-.3.28l-5.2-.31c-.13,0-.19.05-.19.17l0,6.51a.17.17,0,0,0,.18.19l6,.3a.27.27,0,0,1,.27.31V72c0,.2-.09.29-.27.28l-8.51-.41a.28.28,0,0,1-.3-.32Z"/><path d="M119.51,72.73a10.56,10.56,0,0,1-1.59.27,12.9,12.9,0,0,1-1.78,0,6.83,6.83,0,0,1-3.08-.81A5.65,5.65,0,0,1,111,70.16a9.91,9.91,0,0,1-1.16-3.23,25.4,25.4,0,0,1-.37-4.35,23.27,23.27,0,0,1,.35-4.29,9.28,9.28,0,0,1,1.16-3.2,5.12,5.12,0,0,1,2.09-1.94,5.92,5.92,0,0,1,3.12-.51,13.27,13.27,0,0,1,1.77.22,12.89,12.89,0,0,1,1.31.37c.11,0,.16.12.16.28l-.12,1.91a.22.22,0,0,1-.06.13s-.1,0-.18,0a11,11,0,0,0-1.16-.33,12.37,12.37,0,0,0-1.28-.16,3.9,3.9,0,0,0-2.07.35,3,3,0,0,0-1.32,1.39,7.45,7.45,0,0,0-.69,2.44,25.9,25.9,0,0,0-.18,3.51,24,24,0,0,0,.21,3.39,7.77,7.77,0,0,0,.69,2.43,3.78,3.78,0,0,0,1.31,1.5,4.23,4.23,0,0,0,2.1.59,7.54,7.54,0,0,0,1.28,0c.38-.05.77-.11,1.15-.19a1.13,1.13,0,0,1,.26,0,.16.16,0,0,1,.14.17l.13,1.81C119.64,72.61,119.6,72.71,119.51,72.73Z"/><path d="M125,73.2l-2.18-.11c-.21,0-.31-.11-.31-.31l0-19.15q0-.29.3-.27l2.2.16q.24,0,.24.3v8c0,.13.1.21.28.22a.43.43,0,0,0,.39-.18l4.75-7.62a.51.51,0,0,1,.17-.19.42.42,0,0,1,.29-.06l2.5.17q.3,0,.21.3l-5.3,8a1.44,1.44,0,0,0-.19.37.92.92,0,0,0-.05.28.75.75,0,0,0,.06.31l.18.37.78,1.33,1,1.71c.37.62.74,1.25,1.13,1.89s.75,1.26,1.09,1.85l1,1.64c.28.51.5.91.66,1.23,0,.09,0,.17,0,.21a.28.28,0,0,1-.23.06l-2.52-.12a.46.46,0,0,1-.3-.1,1.19,1.19,0,0,1-.15-.18c-.25-.44-.57-1-1-1.75s-.83-1.5-1.3-2.33-.94-1.64-1.41-2.47-.91-1.56-1.3-2.2a1,1,0,0,0-.2-.3.51.51,0,0,0-.26-.07c-.12,0-.2,0-.23,0a.22.22,0,0,0,0,.16v8.62C125.22,73.11,125.14,73.2,125,73.2Z"/><path d="M87.07,97.44a.25.25,0,0,1,.3-.29l8.07.17a.28.28,0,0,1,.3.31l0,1.82a.25.25,0,0,1-.3.29L90,99.64a.16.16,0,0,0-.18.18l.06,6.58a.16.16,0,0,0,.18.18l5.1.06a.28.28,0,0,1,.3.31v1.67a.25.25,0,0,1-.29.3l-5.1,0a.16.16,0,0,0-.18.18l.07,8.3a.27.27,0,0,1-.3.3H87.56c-.21,0-.31-.1-.31-.3Z"/><path d="M106,112.45a.22.22,0,0,0-.24-.21l-5.28,0c-.16,0-.25.07-.27.2s-.13.61-.23,1.06-.19.91-.29,1.4-.19.95-.28,1.41-.16.81-.22,1.07a.36.36,0,0,1-.36.3H96.59c-.2,0-.29-.1-.25-.3.12-.6.29-1.4.53-2.42s.48-2.13.76-3.35.56-2.5.87-3.84.62-2.63.91-3.89.57-2.41.82-3.48.47-1.94.65-2.63a.37.37,0,0,1,.39-.29l3.81.08a.37.37,0,0,1,.37.31c.18.73.41,1.66.68,2.79s.55,2.34.86,3.64l.94,4,.9,3.84c.27,1.2.52,2.26.73,3.2s.37,1.61.45,2q.09.3-.21.3h-2.44a.36.36,0,0,1-.21-.05.51.51,0,0,1-.12-.25c0-.25-.11-.61-.2-1.06s-.2-.92-.31-1.4-.22-1-.31-1.39S106,112.7,106,112.45Zm-.62-2.46a.19.19,0,0,0,.21-.21c-.08-.41-.2-1-.37-1.85s-.35-1.7-.56-2.65-.41-1.89-.6-2.82-.37-1.73-.52-2.38a.7.7,0,0,0-.12-.18.46.46,0,0,0-.27-.07c-.26,0-.39.07-.39.23-.16.63-.34,1.4-.55,2.32s-.41,1.85-.61,2.8-.4,1.83-.57,2.66-.3,1.47-.38,1.9a.19.19,0,0,0,.21.21Z"/><path d="M114.59,117.65h-2.17a.27.27,0,0,1-.3-.3L112,98c0-.2.1-.29.3-.29l2.18,0q.24,0,.24.3l0,8c0,.13.1.2.28.2a.43.43,0,0,0,.39-.2l4.68-7.94a.65.65,0,0,1,.17-.2.42.42,0,0,1,.29-.08l2.47,0c.2,0,.28.11.22.3L118,106.53a1.88,1.88,0,0,0-.19.38,1,1,0,0,0,0,.29.94.94,0,0,0,.07.31l.18.37c.2.35.46.78.77,1.3l1,1.69c.36.6.73,1.22,1.12,1.85l1.09,1.82.93,1.61c.29.5.51.9.67,1.21a.19.19,0,0,1,0,.22.34.34,0,0,1-.22.07h-2.5a.41.41,0,0,1-.3-.09l-.15-.17-1-1.72c-.39-.72-.82-1.49-1.28-2.29l-1.41-2.44c-.48-.81-.91-1.53-1.29-2.15a1,1,0,0,0-.2-.3.43.43,0,0,0-.26-.06c-.12,0-.19,0-.22,0a.22.22,0,0,0,0,.16l0,8.73C114.83,117.55,114.75,117.65,114.59,117.65Z"/><path d="M127.87,100.48q0-.17-.18-.18l-3.14-.06a.26.26,0,0,1-.3-.29V98.24a.25.25,0,0,1,.3-.28l9.37.2c.2,0,.31.1.31.29v1.69a.26.26,0,0,1-.31.28l-3.14-.06c-.12,0-.18.06-.18.17v16.83a.26.26,0,0,1-.3.29h-2.11a.26.26,0,0,1-.3-.29Z"/><path d="M99.07,74.74a6.65,6.65,0,0,1,3.29.9,5.86,5.86,0,0,1,2,2.18,10.14,10.14,0,0,1,1,3.19,27,27,0,0,1,.31,4,26.17,26.17,0,0,1-.28,4,9.78,9.78,0,0,1-1,3.21,5.38,5.38,0,0,1-2,2.11,5.91,5.91,0,0,1-3.2.71l-5.26-.13a.28.28,0,0,1-.3-.31l-.16-19.76a.25.25,0,0,1,.3-.29Zm3.8,10.1a29.12,29.12,0,0,0-.19-3.33,7.89,7.89,0,0,0-.64-2.4,3.44,3.44,0,0,0-1.26-1.47,4.2,4.2,0,0,0-2.06-.57L96.36,77c-.12,0-.18,0-.18.17l.11,15.2q0,.18.15.18l2.42.07a3.55,3.55,0,0,0,2-.45,3.42,3.42,0,0,0,1.24-1.45,7.94,7.94,0,0,0,.64-2.43A28.87,28.87,0,0,0,102.87,84.84Z"/><path d="M109,75.49c0-.2.1-.29.3-.28l8.11.37a.27.27,0,0,1,.3.3v1.78c0,.2-.1.29-.3.28l-5.56-.24c-.12,0-.18,0-.18.17l0,5.81a.17.17,0,0,0,.18.19l5.18.19a.27.27,0,0,1,.31.3V86c0,.19-.1.28-.3.28l-5.18-.18c-.12,0-.18.05-.18.17l0,6.43a.16.16,0,0,0,.18.18l5.93.16a.26.26,0,0,1,.27.3v1.84c0,.19-.09.29-.27.28l-8.47-.2a.27.27,0,0,1-.3-.3Z"/><path d="M129.9,95.72c-.2,0-.34-.13-.42-.38l-5.29-15.43a1.7,1.7,0,0,0-.11-.23.29.29,0,0,0-.2-.07c-.16,0-.23.09-.21.28l.12,15.4c0,.19-.1.28-.3.28l-1.9,0c-.21,0-.31-.1-.31-.3l0-19.18c0-.19.1-.28.31-.27l3.49.16c.16,0,.29.13.39.36l5,15a1.05,1.05,0,0,0,.15.32.25.25,0,0,0,.19.06c.12,0,.18-.06.18-.19l-.13-15a.25.25,0,0,1,.3-.28l1.94.09c.2,0,.31.11.31.3V95.52a.25.25,0,0,1-.3.28Z"/><path class="cls-2" d="M91.59,162.89v1.74H85.43V150.51h6v1.67H87.18l.18.49v3l-.18.49h4v1.74h-4l.16.46v4l-.18.5Z"/><path class="cls-2" d="M93.83,164.63h-.47V150.49l2.8-.21a4.17,4.17,0,0,1,2.43.51c.17.13.32.25.43.35a1.12,1.12,0,0,1,.3.47l.15.55a2.68,2.68,0,0,1,.14,1v1.14c0,1.88-.27,3.06-.8,3.53a1.63,1.63,0,0,1-.92.37l3.11,6.45h-.64a3.13,3.13,0,0,1-1.34-.19,1.64,1.64,0,0,1-.64-.85L96,158.24H95l.18.49,0,4.7c0,.61-.06.95-.18,1A2.71,2.71,0,0,1,93.83,164.63Zm2.37-8.14c.7,0,1.13-.14,1.28-.43a3.24,3.24,0,0,0,.23-1.41c0-.65,0-1.07,0-1.25a4,4,0,0,0-.09-.6.76.76,0,0,0-.23-.46A1.93,1.93,0,0,0,96.2,152H95l.18.49V156l-.16.45Z"/><path class="cls-2" d="M102.18,162.69c1.31.13,2.26.2,2.86.2a3.88,3.88,0,0,0,1.25-.14,1.37,1.37,0,0,0,.52-.33,1.17,1.17,0,0,0,.25-.55,5.5,5.5,0,0,0,.1-1.16,2.16,2.16,0,0,0-.33-1.2,4.15,4.15,0,0,0-.62-.76l-1-.9c-.5-.44-.85-.75-1.05-.94a11.38,11.38,0,0,1-.85-.89,3.35,3.35,0,0,1-1-2.29,4.48,4.48,0,0,1,.43-2.55,2.51,2.51,0,0,1,1.43-.8,12,12,0,0,1,1.63-.1l2.66.57c-.1.74-.25,1.18-.45,1.31a.73.73,0,0,1-.48.12,4.38,4.38,0,0,1-.89-.12l-.74-.14c-.78,0-1.25.16-1.42.47a1.32,1.32,0,0,0-.18.47,5.21,5.21,0,0,0,0,.65c0,.54.66,1.36,2,2.47q.94.75,1.47,1.26a7,7,0,0,1,1,1.23,2.59,2.59,0,0,1,.47,1.37c0,.44,0,.77,0,1s0,.55-.08.95a3.62,3.62,0,0,1-.2.93,5.56,5.56,0,0,1-.42.76,1.78,1.78,0,0,1-.66.65,5,5,0,0,1-2.4.55,10,10,0,0,1-1.82-.19c-.69-.12-1.16-.2-1.39-.22Z"/><path class="cls-2" d="M116.67,152.18h-2.39l.17.49v10.76c0,.61-.06.95-.18,1a2.82,2.82,0,0,1-1.25.15h-.47v-12l.14-.49h-2.35v-1.67h6.33Z"/><path class="cls-2" d="M123.79,151.71v11.72c0,.61-.07.95-.19,1a2.68,2.68,0,0,1-1.22.15H122V150.51h.42a2.68,2.68,0,0,1,1.22.15C123.72,150.76,123.79,151.11,123.79,151.71Zm4.65-1.18a.83.83,0,0,1,.39.14.41.41,0,0,1,.15.34q0,.23-2.94,6.5l3.45,7.12h-.59a3.09,3.09,0,0,1-1.32-.19,1.76,1.76,0,0,1-.68-.89l-2.84-6,3.3-7h.29Z"/><path class="cls-2" d="M135.34,162.89a2.77,2.77,0,0,1,1.24.15c.13.11.19.46.19,1.06v.53h-5.71V150.51h.49a2.82,2.82,0,0,1,1.25.15q.18.15.18,1.05v10.68l-.17.5Z"/><path class="cls-2" d="M145,164.63a2.5,2.5,0,0,1-1.2-.16,2,2,0,0,1-.39-1l-.66-3.31h-2.47l-.81,4.51H139a3.93,3.93,0,0,1-1.19-.11c-.17-.07-.26-.24-.26-.51s1-4.77,3-13.5h1.88l3.22,14.12Zm-5.16-15.35a1.12,1.12,0,0,1-.83-.37,1.15,1.15,0,0,1-.36-.84,1.08,1.08,0,0,1,.35-.81,1.17,1.17,0,0,1,1.65,0,1,1,0,0,1,.35.81,1.14,1.14,0,0,1-.35.84A1.09,1.09,0,0,1,139.82,149.28Zm1.55,4.8-.72,3.82-.16.34h2l-.1-.19a1,1,0,0,1-.07-.18l-.77-3.79Zm1.85-4.8a1.25,1.25,0,0,1-1.2-1.21,1.06,1.06,0,0,1,.36-.81,1.18,1.18,0,0,1,1.66,0,1,1,0,0,1,.35.81,1.14,1.14,0,0,1-.35.84A1.08,1.08,0,0,1,143.22,149.28Z"/><path class="cls-2" d="M147.67,164.63h-.47V150.49l2.8-.21a4.17,4.17,0,0,1,2.43.51l.44.35a1.22,1.22,0,0,1,.29.47l.16.55a2.94,2.94,0,0,1,.13,1v1.14c0,1.88-.26,3.06-.8,3.53a1.6,1.6,0,0,1-.92.37l3.12,6.45h-.65a3.05,3.05,0,0,1-1.33-.19,1.59,1.59,0,0,1-.65-.85l-2.41-5.35h-.93l.18.49,0,4.7c0,.61-.06.95-.18,1A2.65,2.65,0,0,1,147.67,164.63Zm2.37-8.14c.71,0,1.14-.14,1.29-.43a3.27,3.27,0,0,0,.22-1.41c0-.65,0-1.07,0-1.25a3,3,0,0,0-.09-.6.76.76,0,0,0-.23-.46A1.93,1.93,0,0,0,150,152h-1.16l.18.49V156l-.16.45Z"/><path class="cls-2" d="M162.57,162.89v1.74h-6.16V150.51h6v1.67h-4.22l.18.49v3l-.18.49h4v1.74h-4l.16.46v4l-.18.5Z"/><path class="cls-2" d="M169,160.32v-9.81h.43a2.73,2.73,0,0,1,1.24.15q.18.15.18,1.05v12.92h-.59a2.9,2.9,0,0,1-1.22-.15,2.1,2.1,0,0,1-.51-.95L166,155.06h-.09v8.37c0,.61-.06.95-.18,1a2.73,2.73,0,0,1-1.24.15H164V150.51h.43a2.91,2.91,0,0,1,1.18.14,2.3,2.3,0,0,1,.53,1l2.69,8.71Z"/><path class="cls-2" d="M173.49,164.63a1.2,1.2,0,0,1-1.17-1.19,1,1,0,0,1,.35-.81,1.16,1.16,0,0,1,.82-.33,1.18,1.18,0,0,1,.83.33,1.08,1.08,0,0,1,.35.81,1.18,1.18,0,0,1-.35.84A1.16,1.16,0,0,1,173.49,164.63Z"/><path class="cls-2" d="M92.45,177a16.63,16.63,0,0,1,.21,1.89c0,.5,0,1.16,0,2v1.68a15.13,15.13,0,0,1-.1,2.11c-.06.44-.14.86-.21,1.26a3.21,3.21,0,0,1-.3.91,7.65,7.65,0,0,1-.44.69,1.75,1.75,0,0,1-.6.56,3.84,3.84,0,0,1-1.88.45l-3.73-.13V174.29l3.73-.2a3.5,3.5,0,0,1,1.72.4,3.16,3.16,0,0,1,1,.92A3.87,3.87,0,0,1,92.45,177Zm-3.29,9.8a1.09,1.09,0,0,0,1-.45,4.64,4.64,0,0,0,.3-.49,2.26,2.26,0,0,0,.2-.71c0-.31.09-.58.12-.8s.05-.55.07-1,0-.76,0-1v-2.26a16,16,0,0,0-.07-1.81c-.05-.3-.09-.6-.14-.9a2,2,0,0,0-.2-.69,3.58,3.58,0,0,0-.3-.46,1.09,1.09,0,0,0-1-.45h-2l.16.49v10l-.18.49Z"/><path class="cls-2" d="M101.49,188.45a2.64,2.64,0,0,1-1.2-.16,2,2,0,0,1-.39-1l-.66-3.31H96.77L96,188.45h-.45a3.93,3.93,0,0,1-1.19-.11c-.17-.07-.26-.24-.26-.51s1-4.77,3-13.5h1.88l3.22,14.12Zm-3.6-10.55-.73,3.82-.16.33h2l-.1-.18a.92.92,0,0,1-.07-.19l-.77-3.78Z"/><path class="cls-2" d="M108.34,184.13v-9.8h.43a2.68,2.68,0,0,1,1.23.15c.12.09.18.44.18,1v12.93h-.59a2.85,2.85,0,0,1-1.21-.15,2,2,0,0,1-.51-1l-2.53-8.47h-.1v8.37q0,.9-.18,1.05a2.71,2.71,0,0,1-1.23.15h-.42V174.33h.44a2.67,2.67,0,0,1,1.17.14,2.19,2.19,0,0,1,.53,1l2.69,8.7Z"/><path class="cls-2" d="M116.89,184.13v-9.8h.43a2.71,2.71,0,0,1,1.23.15c.12.09.18.44.18,1v12.93h-.59a2.94,2.94,0,0,1-1.22-.15,2.16,2.16,0,0,1-.51-1l-2.52-8.47h-.1v8.37q0,.9-.18,1.05a2.71,2.71,0,0,1-1.23.15H112V174.33h.44a2.67,2.67,0,0,1,1.17.14,2.19,2.19,0,0,1,.53,1l2.69,8.7Z"/><path class="cls-2" d="M124.14,186.5c1.31.14,2.26.2,2.86.2a3.61,3.61,0,0,0,1.25-.14,1.5,1.5,0,0,0,.52-.32,1.08,1.08,0,0,0,.25-.56,5.44,5.44,0,0,0,.1-1.16,2.15,2.15,0,0,0-.33-1.19,4.27,4.27,0,0,0-.62-.77l-1-.9q-.75-.65-1-.93c-.2-.19-.49-.49-.85-.89a3.37,3.37,0,0,1-1-2.3,4.52,4.52,0,0,1,.43-2.55,2.49,2.49,0,0,1,1.43-.79,11.94,11.94,0,0,1,1.63-.11l2.67.57c-.11.75-.26,1.18-.46,1.32a.8.8,0,0,1-.48.11,5.17,5.17,0,0,1-.89-.11l-.74-.14c-.77,0-1.25.15-1.42.47a1.32,1.32,0,0,0-.18.47,5.1,5.1,0,0,0,0,.65c0,.53.66,1.36,2,2.47a18.24,18.24,0,0,1,1.47,1.25,6.76,6.76,0,0,1,1,1.24,2.56,2.56,0,0,1,.47,1.37c0,.43,0,.76,0,1s0,.54-.08.94a3.44,3.44,0,0,1-.2.93,5.42,5.42,0,0,1-.41.77,1.94,1.94,0,0,1-.67.64,4.88,4.88,0,0,1-2.39.55,10.93,10.93,0,0,1-1.83-.18c-.69-.13-1.15-.2-1.39-.23Z"/><path class="cls-2" d="M134.9,187.25q0,.9-.18,1.05a2.74,2.74,0,0,1-1.23.15h-.41V174.33h.41a2.74,2.74,0,0,1,1.23.15c.12.09.18.44.18,1v4l-.07.5h3.23l-.06-.5v-5.15h.43a2.71,2.71,0,0,1,1.23.15c.12.09.19.44.19,1v12.93h-.4a2.82,2.82,0,0,1-1.26-.15c-.13-.1-.19-.45-.19-1.05v-5.12l.16-.41h-3.41l.15.45Z"/><path class="cls-2" d="M148.85,188.45a2.69,2.69,0,0,1-1.21-.16,2.07,2.07,0,0,1-.38-1l-.67-3.31h-2.47l-.8,4.51h-.45a4,4,0,0,1-1.2-.11c-.17-.07-.26-.24-.26-.51s1-4.77,3-13.5h1.88l3.21,14.12Zm-3.61-10.55-.73,3.82-.15.33h2a.55.55,0,0,1-.1-.18l-.08-.19-.77-3.78Z"/><path class="cls-2" d="M151.53,188.45h-.47V174.31l2.81-.22a4.22,4.22,0,0,1,2.43.51c.17.13.31.25.43.36a1.11,1.11,0,0,1,.29.47l.16.55a2.87,2.87,0,0,1,.14,1v1.13c0,1.89-.27,3.06-.81,3.53a1.51,1.51,0,0,1-.92.37l3.12,6.46h-.65a3.25,3.25,0,0,1-1.33-.19,1.69,1.69,0,0,1-.65-.85l-2.41-5.36h-.92l.17.49,0,4.71c0,.6-.05.95-.17,1.05A2.73,2.73,0,0,1,151.53,188.45Zm2.38-8.14c.7,0,1.13-.15,1.28-.43a3.27,3.27,0,0,0,.22-1.41v-1.25a3.92,3.92,0,0,0-.09-.61.79.79,0,0,0-.24-.46,1.89,1.89,0,0,0-1.17-.31h-1.16l.17.49v3.53l-.15.45Z"/><path class="cls-2" d="M166.43,186.7v1.75h-6.15V174.33h6V176H162l.18.49v3l-.18.5h4v1.74h-4l.16.45v4l-.18.49Z"/><path class="cls-2" d="M172.83,184.13v-9.8h.43a2.68,2.68,0,0,1,1.23.15c.12.09.18.44.18,1v12.93h-.59a2.85,2.85,0,0,1-1.21-.15,2,2,0,0,1-.51-1l-2.53-8.47h-.1v8.37q0,.9-.18,1.05a2.71,2.71,0,0,1-1.23.15h-.42V174.33h.44a2.67,2.67,0,0,1,1.17.14,2.19,2.19,0,0,1,.53,1l2.69,8.7Z"/><path class="cls-2" d="M177.36,188.45a1.13,1.13,0,0,1-.83-.36,1.14,1.14,0,0,1-.35-.83,1.08,1.08,0,0,1,.35-.81,1.17,1.17,0,0,1,1.65,0,1,1,0,0,1,.35.81,1.1,1.1,0,0,1-.35.83A1.12,1.12,0,0,1,177.36,188.45Z"/></svg>