<svg id="EN" xmlns="http://www.w3.org/2000/svg" viewBox="0 0 200 200"><defs><style>.cls-1{fill:#f8cc37;}.cls-2{fill:#fff;}</style></defs><circle class="cls-1" cx="80.46" cy="86.59" r="77.95"/><path class="cls-2" d="M128,133.89H72s-13.78,10.58-20.92,15.75c0-2.95,2.22-15.75,2.22-15.75H43.56a5.74,5.74,0,0,1-5.73-5.73L35.61,44.73A5.75,5.75,0,0,1,41.34,39l86.85,6.85a5.66,5.66,0,0,1,5.62,5.73v76.58A5.83,5.83,0,0,1,128,133.89Z"/><path d="M46.32,145.76a1.39,1.39,0,0,1-.63-.15,1.37,1.37,0,0,1-.75-1.22c0-2.42,1.37-10.81,2-14.38H38.78a7.11,7.11,0,0,1-7.1-7.11L29.46,39.51a7.13,7.13,0,0,1,7.11-7.14h.11l86.79,6.84a7.1,7.1,0,0,1,7,7.1V122.9a7.29,7.29,0,0,1-7.28,7.11H67.71c-2.26,1.72-14.17,10.84-20.59,15.49A1.39,1.39,0,0,1,46.32,145.76ZM36.52,35.12a4.37,4.37,0,0,0-4.31,4.36l2.22,83.39a4.36,4.36,0,0,0,4.35,4.39h9.75a1.36,1.36,0,0,1,1,.49,1.35,1.35,0,0,1,.31,1.12c-.46,2.65-1.47,8.76-1.94,12.62,7.35-5.43,18.33-13.85,18.45-14a1.41,1.41,0,0,1,.84-.28h56a4.51,4.51,0,0,0,4.53-4.36V46.32A4.34,4.34,0,0,0,123.42,42h-.11Z"/><path d="M63.69,70.76A11,11,0,0,1,62.1,71a11.42,11.42,0,0,1-1.78,0,6.66,6.66,0,0,1-3.09-.84,5.76,5.76,0,0,1-2.07-2.14A10.34,10.34,0,0,1,54,64.72a26.15,26.15,0,0,1-.41-4.53,24.68,24.68,0,0,1,.31-4.48A10.16,10.16,0,0,1,55,52.37a5.2,5.2,0,0,1,2.08-2,5.72,5.72,0,0,1,3.12-.54A11.65,11.65,0,0,1,62,50a9.59,9.59,0,0,1,1.31.38c.1,0,.16.12.16.28l-.1,2a.19.19,0,0,1-.06.13s-.1,0-.19,0a7.13,7.13,0,0,0-1.16-.34,8.41,8.41,0,0,0-1.28-.16,3.66,3.66,0,0,0-2.06.36,3.16,3.16,0,0,0-1.31,1.45,8,8,0,0,0-.67,2.56,30.39,30.39,0,0,0-.16,3.66,29,29,0,0,0,.24,3.53,8.53,8.53,0,0,0,.71,2.54A3.88,3.88,0,0,0,58.74,68a4,4,0,0,0,2.1.61,5.92,5.92,0,0,0,1.28,0c.38,0,.76-.11,1.15-.2a1.13,1.13,0,0,1,.26,0,.16.16,0,0,1,.13.18l.15,1.89Q63.81,70.73,63.69,70.76Z"/><path d="M75.46,51.44q0-.3.3-.27l2.14.15a.28.28,0,0,1,.3.32l.16,19.75c0,.2-.1.29-.3.28l-2.13-.1a.3.3,0,0,1-.31-.32l-.07-8.91a.17.17,0,0,0-.18-.19l-5.85-.35c-.12,0-.18.05-.18.18l.09,9a.25.25,0,0,1-.3.29L67,71.13a.29.29,0,0,1-.31-.32l-.19-20c0-.21.09-.3.3-.29l2.13.15a.3.3,0,0,1,.31.33l.08,8.31a.17.17,0,0,0,.18.19l5.85.36c.12,0,.18,0,.18-.17Z"/><path d="M82.29,51.92q0-.3.3-.27l8.14.57a.29.29,0,0,1,.31.32v1.8a.24.24,0,0,1-.3.27l-5.58-.38c-.12,0-.18.05-.18.17l0,5.88a.17.17,0,0,0,.18.19l5.21.32a.28.28,0,0,1,.3.32v1.62c0,.2-.1.29-.3.28l-5.2-.31c-.13,0-.19,0-.19.17l0,6.51a.16.16,0,0,0,.18.18l6,.31c.18,0,.27.11.27.31V72c0,.2-.09.29-.27.28l-8.51-.42a.28.28,0,0,1-.3-.31Z"/><path d="M103.87,72.74a10.56,10.56,0,0,1-1.59.27,12.9,12.9,0,0,1-1.78,0,6.83,6.83,0,0,1-3.08-.81,5.65,5.65,0,0,1-2.06-2.06,9.91,9.91,0,0,1-1.16-3.23,24.43,24.43,0,0,1-.37-4.35,23.27,23.27,0,0,1,.35-4.29,9.28,9.28,0,0,1,1.16-3.2,5.12,5.12,0,0,1,2.09-1.94,5.92,5.92,0,0,1,3.12-.51,11.65,11.65,0,0,1,1.77.23,10.77,10.77,0,0,1,1.31.36c.11,0,.16.12.16.28l-.12,1.91a.22.22,0,0,1-.06.13s-.1,0-.18,0a11,11,0,0,0-1.16-.33,12.37,12.37,0,0,0-1.28-.16,3.88,3.88,0,0,0-2.07.35,3,3,0,0,0-1.32,1.39,7.22,7.22,0,0,0-.69,2.44,27.47,27.47,0,0,0-.19,3.51,25.48,25.48,0,0,0,.22,3.39,7.77,7.77,0,0,0,.69,2.43,3.78,3.78,0,0,0,1.31,1.5,4.23,4.23,0,0,0,2.1.59,7.54,7.54,0,0,0,1.28,0c.38,0,.77-.11,1.15-.18a.75.75,0,0,1,.26,0,.16.16,0,0,1,.14.17l.12,1.81C104,72.62,104,72.72,103.87,72.74Z"/><path d="M109.34,73.21l-2.18-.11c-.21,0-.31-.11-.31-.3l0-19.16c0-.19.1-.28.3-.27l2.2.16q.24,0,.24.3v8c0,.14.1.21.28.22a.43.43,0,0,0,.39-.18L115,54.21a.55.55,0,0,1,.16-.18.4.4,0,0,1,.29-.07l2.51.18q.3,0,.21.3l-5.3,8a2.38,2.38,0,0,0-.2.36,1.45,1.45,0,0,0,0,.29.73.73,0,0,0,.06.3c0,.09.1.22.18.37l.78,1.33c.32.53.66,1.1,1,1.72l1.13,1.88,1.09,1.86c.35.59.66,1.14.95,1.64s.5.91.66,1.22c0,.1,0,.17,0,.22a.37.37,0,0,1-.23.06l-2.52-.13a.41.41,0,0,1-.3-.1,1.29,1.29,0,0,1-.16-.18c-.24-.43-.56-1-1-1.74s-.83-1.51-1.3-2.33-.94-1.65-1.41-2.48-.91-1.55-1.3-2.19a1,1,0,0,0-.2-.3.42.42,0,0,0-.26-.08.53.53,0,0,0-.23,0,.22.22,0,0,0,0,.16v8.62C109.58,73.13,109.5,73.22,109.34,73.21Z"/><path d="M73,97.48a.25.25,0,0,1,.3-.29l8.07.17a.28.28,0,0,1,.3.31l0,1.82a.25.25,0,0,1-.3.29L76,99.68c-.12,0-.18,0-.18.17l0,6.58a.17.17,0,0,0,.19.18l5.1.06a.27.27,0,0,1,.3.3v1.67a.27.27,0,0,1-.3.3l-5.09,0q-.19,0-.18.18l.06,8.28a.25.25,0,0,1-.29.3H73.51a.28.28,0,0,1-.31-.3Z"/><path d="M91.94,112.46a.23.23,0,0,0-.25-.2l-5.27,0a.23.23,0,0,0-.27.21l-.24,1c-.09.45-.19.91-.29,1.4s-.19,1-.27,1.41-.16.81-.22,1.07a.36.36,0,0,1-.36.3H82.54c-.2,0-.28-.09-.24-.29.11-.6.29-1.4.52-2.42s.49-2.12.76-3.34.57-2.5.88-3.83.62-2.63.91-3.89.57-2.41.82-3.47l.65-2.63a.37.37,0,0,1,.39-.29l3.81.09a.35.35,0,0,1,.37.3c.18.73.41,1.66.68,2.79s.55,2.34.86,3.64.62,2.63.94,4,.61,2.63.89,3.83.52,2.26.74,3.19.36,1.61.45,2.05c.06.19,0,.29-.21.29H93.32a.36.36,0,0,1-.21,0,.51.51,0,0,1-.12-.25c0-.25-.11-.61-.21-1.06s-.19-.92-.3-1.4-.22-.94-.31-1.39S92,112.72,91.94,112.46ZM91.32,110a.18.18,0,0,0,.21-.2c-.08-.42-.21-1-.37-1.85s-.35-1.7-.56-2.65-.41-1.89-.6-2.82-.37-1.72-.52-2.37a.7.7,0,0,0-.12-.18.4.4,0,0,0-.27-.07c-.26,0-.39.07-.39.23-.16.63-.34,1.4-.55,2.32s-.41,1.84-.61,2.79-.4,1.83-.58,2.66-.3,1.46-.38,1.89a.19.19,0,0,0,.22.21Z"/><path d="M107.26,117.46a12.79,12.79,0,0,1-1.58.35,13.61,13.61,0,0,1-1.76.11,6.59,6.59,0,0,1-3.06-.65,5.16,5.16,0,0,1-2-2,9.18,9.18,0,0,1-1.14-3.17,24,24,0,0,1-.37-4.32,23.47,23.47,0,0,1,.34-4.29,9.94,9.94,0,0,1,1.15-3.25,5.54,5.54,0,0,1,2.08-2,6,6,0,0,1,3.1-.66,12.9,12.9,0,0,1,1.75.14,11.31,11.31,0,0,1,1.3.3c.1,0,.15.11.15.27l-.11,1.91a.3.3,0,0,1-.06.13c-.05.05-.11.05-.19,0a9,9,0,0,0-1.15-.27,10.94,10.94,0,0,0-1.26-.09,3.93,3.93,0,0,0-2.06.44,3.33,3.33,0,0,0-1.31,1.45,7.73,7.73,0,0,0-.68,2.47,25.84,25.84,0,0,0-.18,3.5,25.34,25.34,0,0,0,.2,3.37,7.82,7.82,0,0,0,.69,2.38,3.39,3.39,0,0,0,1.3,1.44,4.15,4.15,0,0,0,2.08.49,7,7,0,0,0,1.26-.1c.39-.07.77-.15,1.15-.25a1,1,0,0,1,.25,0,.14.14,0,0,1,.14.16l.13,1.8C107.38,117.33,107.34,117.44,107.26,117.46Z"/><path d="M112.23,100.5a.16.16,0,0,0-.18-.18l-3.14-.06c-.2,0-.3-.1-.3-.3V98.25c0-.19.1-.28.3-.28l9.37.21a.26.26,0,0,1,.3.29v1.69c0,.19-.1.28-.3.28l-3.14-.06c-.12,0-.18.05-.18.17v16.83c0,.19-.1.28-.3.28h-2.11c-.2,0-.3-.09-.3-.28Z"/><path d="M85,77.34c0-.12-.06-.18-.19-.18L81.69,77a.28.28,0,0,1-.31-.31V75a.25.25,0,0,1,.3-.29l9.41.44a.28.28,0,0,1,.31.31v1.74c0,.19-.1.29-.31.28l-3.15-.14c-.12,0-.18,0-.18.17l.1,17.33a.25.25,0,0,1-.3.29l-2.11,0c-.21,0-.31-.1-.31-.3Z"/><path d="M102.74,75.93c0-.2.1-.29.3-.28l2.13.1a.27.27,0,0,1,.3.3l0,19.18c0,.2-.1.29-.3.29l-2.12,0a.27.27,0,0,1-.3-.3l0-8.66a.16.16,0,0,0-.18-.18l-5.82-.2c-.12,0-.18.05-.18.17l0,8.71c0,.2-.1.29-.3.29l-2.12,0a.27.27,0,0,1-.3-.3l-.09-19.43c0-.2.1-.29.3-.28l2.12.09a.29.29,0,0,1,.31.31l0,8.07a.17.17,0,0,0,.18.19l5.82.21c.13,0,.19,0,.19-.17Z"/><path d="M109.54,76.24c0-.2.1-.29.3-.28l8.11.38a.27.27,0,0,1,.3.3v1.74c0,.2-.1.29-.3.28l-5.55-.24c-.13,0-.19,0-.19.16v5.71a.16.16,0,0,0,.18.18l5.19.19a.27.27,0,0,1,.3.3v1.58c0,.19-.1.28-.3.28l-5.18-.18c-.13,0-.19,0-.19.16v6.32a.16.16,0,0,0,.18.18l5.93.16a.27.27,0,0,1,.28.3v1.8c0,.19-.09.29-.28.28l-8.46-.21c-.2,0-.31-.1-.31-.29Z"/><rect x="65.91" y="147.32" width="74.69" height="20.27"/><rect x="65.83" y="171.09" width="133.67" height="20.27"/><path class="cls-2" d="M74.92,152.18h-2.4l.18.49v10.76q0,.91-.18,1a2.82,2.82,0,0,1-1.25.15H70.8v-12l.14-.49H68.58v-1.67h6.34Z"/><path class="cls-2" d="M82.64,164.63a2.5,2.5,0,0,1-1.2-.16,2,2,0,0,1-.39-1l-.66-3.31H77.92l-.81,4.51h-.45a3.62,3.62,0,0,1-1.19-.11c-.17-.07-.26-.24-.26-.51s1-4.76,3-13.5h1.88l3.22,14.12ZM79,154.08l-.72,3.83-.16.33h2l-.1-.19a1,1,0,0,1-.07-.18l-.77-3.79Z"/><path class="cls-2" d="M86.68,151.71v11.72q0,.91-.18,1a2.77,2.77,0,0,1-1.23.15h-.41V150.51h.41a2.77,2.77,0,0,1,1.23.15Q86.68,150.81,86.68,151.71Zm4.66-1.18a.76.76,0,0,1,.38.14.39.39,0,0,1,.16.34q0,.23-2.94,6.5l3.45,7.12H91.8a3.09,3.09,0,0,1-1.32-.19,1.71,1.71,0,0,1-.68-.89l-2.84-6,3.29-7h.29Z"/><path class="cls-2" d="M100.11,162.89v1.74H94V150.51h6v1.67H95.7l.18.49v3l-.18.49h4v1.75h-4l.16.45v4l-.18.49Z"/><path class="cls-2" d="M107.36,155.34c0,.45,0,1.16,0,2.11s0,1.66,0,2.12a12.3,12.3,0,0,0,.17,1.56,2.29,2.29,0,0,0,.47,1.23,1.19,1.19,0,0,0,.9.35c.38,0,.89,0,1.55-.09l1.27-.11v1.91l-1.17.18a10.18,10.18,0,0,1-1.57.17,3.8,3.8,0,0,1-1.06-.13,4,4,0,0,1-.83-.31,2,2,0,0,1-.62-.57,5.71,5.71,0,0,1-.45-.7,3.1,3.1,0,0,1-.3-.91q-.12-.6-.18-1c0-.26-.07-.65-.09-1.17s0-.91,0-1.2v-2.65a14.75,14.75,0,0,1,.1-2.07c.06-.44.13-.85.21-1.24a3,3,0,0,1,.3-.9,5.61,5.61,0,0,1,.45-.67,1.78,1.78,0,0,1,.62-.55,4.16,4.16,0,0,1,1.89-.43l2.72.62a2,2,0,0,1-.59,1.42,1.33,1.33,0,0,1-.66.13,5.93,5.93,0,0,1-1-.11l-.55-.14a1.16,1.16,0,0,0-.88.35,2.29,2.29,0,0,0-.47,1.23A12.3,12.3,0,0,0,107.36,155.34Z"/><path class="cls-2" d="M120.13,164.63a2.5,2.5,0,0,1-1.2-.16,2,2,0,0,1-.39-1l-.66-3.31h-2.47l-.81,4.51h-.45a3.62,3.62,0,0,1-1.19-.11c-.17-.07-.26-.24-.26-.51s1-4.76,3-13.5h1.88l3.22,14.12Zm-3.6-10.55-.73,3.83-.16.33h2l-.1-.19a1,1,0,0,1-.07-.18l-.77-3.79Z"/><path class="cls-2" d="M122.82,164.63h-.47V150.49l2.8-.21a4.17,4.17,0,0,1,2.43.51l.44.35a1.22,1.22,0,0,1,.29.47l.16.55a3,3,0,0,1,.13,1v1.14c0,1.88-.26,3.06-.8,3.53a1.6,1.6,0,0,1-.92.37l3.12,6.45h-.65a3.05,3.05,0,0,1-1.33-.19,1.59,1.59,0,0,1-.65-.85L125,158.24H124l.18.49,0,4.7q0,.91-.18,1A2.65,2.65,0,0,1,122.82,164.63Zm2.37-8.14c.71,0,1.14-.14,1.29-.43a3.27,3.27,0,0,0,.22-1.41c0-.65,0-1.07,0-1.24a2.43,2.43,0,0,0-.09-.61.76.76,0,0,0-.23-.46,1.93,1.93,0,0,0-1.18-.32H124l.18.49V156l-.16.45Z"/><path class="cls-2" d="M137.72,162.89v1.74h-6.16V150.51h6v1.67h-4.22l.18.49v3l-.18.49h4v1.75h-4l.16.45v4l-.18.49Z"/><path class="cls-2" d="M75.54,177.35v.78a9.64,9.64,0,0,1-.09,1.56,2.61,2.61,0,0,1-.43,1A3.41,3.41,0,0,1,76,182a7.54,7.54,0,0,1,.28,2.41,10.82,10.82,0,0,1-.11,2,6.19,6.19,0,0,1-.24.69,1.24,1.24,0,0,1-.33.49,3.68,3.68,0,0,1-.48.37,2.11,2.11,0,0,1-.66.31,7.9,7.9,0,0,1-2,.23l-3.08-.15V174.31l2.68-.22a4.33,4.33,0,0,1,2.46.51A3.71,3.71,0,0,1,75,175a1.19,1.19,0,0,1,.28.48,5.65,5.65,0,0,1,.18.54A4.76,4.76,0,0,1,75.54,177.35ZM72.43,187c.92,0,1.52-.18,1.77-.52a2.67,2.67,0,0,0,.38-1.59c0-.72,0-1.23,0-1.55a3.63,3.63,0,0,0-.26-1,1.78,1.78,0,0,0-1.84-1H71.07l.18.41v4.74l-.18.42Zm-.4-7c.79,0,1.28-.11,1.48-.33a2.87,2.87,0,0,0,.29-1.63,3.59,3.59,0,0,0-.32-1.79c-.22-.33-.7-.5-1.45-.5h-.9l.14.41v3.45l-.18.39Z"/><path class="cls-2" d="M84.21,186.7v1.75H78.05V174.33h6V176H79.8l.18.49v3l-.18.49h4v1.74h-4l.16.45v4l-.18.49Z"/><path class="cls-2" d="M91.7,180v1.74h-4l.16.45v6.28h-.49a2.82,2.82,0,0,1-1.25-.15q-.18-.15-.18-1.05V174.33h6V176H87.72l.18.49v3l-.18.49Z"/><path class="cls-2" d="M97.32,188.58a3,3,0,0,1-3-1.68,14.12,14.12,0,0,1-.79-5.57,13.33,13.33,0,0,1,.84-5.56,3,3,0,0,1,3-1.68,3,3,0,0,1,3,1.67,13.56,13.56,0,0,1,.82,5.57,14.38,14.38,0,0,1-.77,5.58A3,3,0,0,1,97.32,188.58Zm-1.95-7.31a15.06,15.06,0,0,0,.43,4.19c.29.92.79,1.38,1.52,1.38s1.23-.46,1.52-1.38a14.94,14.94,0,0,0,.43-4.17q0-5.44-2-5.45T95.37,181.27Z"/><path class="cls-2" d="M103.72,188.45h-.47V174.31l2.81-.22a4.22,4.22,0,0,1,2.43.51c.17.13.31.25.43.36a1.11,1.11,0,0,1,.29.47l.16.55a2.87,2.87,0,0,1,.14,1v1.13c0,1.89-.27,3.06-.81,3.53a1.58,1.58,0,0,1-.92.38l3.12,6.45h-.65a3.25,3.25,0,0,1-1.33-.19,1.69,1.69,0,0,1-.65-.85l-2.41-5.36h-.92l.17.49,0,4.71c0,.6-.06.95-.17,1.05A2.73,2.73,0,0,1,103.72,188.45Zm2.37-8.14c.71,0,1.14-.14,1.29-.43a3.27,3.27,0,0,0,.22-1.41c0-.66,0-1.07,0-1.25a2.92,2.92,0,0,0-.08-.61.79.79,0,0,0-.24-.46,1.91,1.91,0,0,0-1.18-.31h-1.15l.17.49v3.53l-.15.45Z"/><path class="cls-2" d="M118.62,186.7v1.75h-6.15V174.33h6V176h-4.22l.18.49v3l-.18.49h4v1.74h-4l.16.45v4l-.18.49Z"/><path class="cls-2" d="M129.41,174.33a3.54,3.54,0,0,1,.93.08c.15.05.22.18.22.39s-.85,2.5-2.56,6.88v6.77h-.44a2.77,2.77,0,0,1-1.24-.15c-.12-.1-.19-.45-.19-1.05v-5.59l-2.8-7.33h.76a2.15,2.15,0,0,1,1,.14,2.49,2.49,0,0,1,.51,1l1.3,3.94h.29l1.67-5Z"/><path class="cls-2" d="M135.75,188.58a3,3,0,0,1-3-1.68,14.12,14.12,0,0,1-.79-5.57,13.33,13.33,0,0,1,.84-5.56,3,3,0,0,1,3-1.68,3,3,0,0,1,2.95,1.67,13.52,13.52,0,0,1,.83,5.57,14.34,14.34,0,0,1-.78,5.58A3,3,0,0,1,135.75,188.58Zm-1.95-7.31a15.06,15.06,0,0,0,.43,4.19c.29.92.8,1.38,1.52,1.38s1.23-.46,1.52-1.38a14.94,14.94,0,0,0,.43-4.17q0-5.44-1.95-5.45T133.8,181.27Z"/><path class="cls-2" d="M146.86,182.56v-8.23h.49a2.68,2.68,0,0,1,1.22.15c.13.09.19.44.19,1v7a21.44,21.44,0,0,1-.15,3.54c-.09.35-.2.68-.31,1a1.47,1.47,0,0,1-.42.68,6.66,6.66,0,0,1-.63.44,4.21,4.21,0,0,1-2.06.37,4.52,4.52,0,0,1-1.6-.19l-.69-.33a1.11,1.11,0,0,1-.45-.44l-.33-.51a1.91,1.91,0,0,1-.2-.67c0-.32-.1-.58-.13-.76a7,7,0,0,1-.07-.93c0-.44,0-.77,0-1v-9.41h.47a2.73,2.73,0,0,1,1.24.15c.12.09.17.44.17,1v7.67a10,10,0,0,0,.27,2.89c.18.51.62.76,1.34.76a2.33,2.33,0,0,0,.7-.09.9.9,0,0,0,.47-.38,5,5,0,0,0,.29-.54,3,3,0,0,0,.15-.87Q146.86,184,146.86,182.56Z"/><path class="cls-2" d="M154.25,186.51c1.31.13,2.26.19,2.86.19a3.61,3.61,0,0,0,1.25-.14,1.5,1.5,0,0,0,.52-.32,1.08,1.08,0,0,0,.25-.56,5.44,5.44,0,0,0,.1-1.16,2.15,2.15,0,0,0-.33-1.19,3.88,3.88,0,0,0-.62-.77l-1-.9q-.75-.65-1.05-.93c-.2-.19-.48-.49-.85-.89a3.37,3.37,0,0,1-1-2.3,4.46,4.46,0,0,1,.43-2.54,2.45,2.45,0,0,1,1.43-.8,11.94,11.94,0,0,1,1.63-.11l2.67.57q-.16,1.13-.45,1.32a.86.86,0,0,1-.49.11,5.17,5.17,0,0,1-.89-.11l-.74-.14c-.77,0-1.24.16-1.41.47a1.19,1.19,0,0,0-.19.47,5.1,5.1,0,0,0,0,.65c0,.53.66,1.36,2,2.47a18.24,18.24,0,0,1,1.47,1.25,6.76,6.76,0,0,1,1,1.24,2.48,2.48,0,0,1,.47,1.37c0,.43,0,.76,0,1a8.23,8.23,0,0,1-.08.94,3.44,3.44,0,0,1-.2.93,4.93,4.93,0,0,1-.41.77,1.85,1.85,0,0,1-.67.64,4.88,4.88,0,0,1-2.39.55,10.93,10.93,0,0,1-1.83-.18c-.69-.13-1.15-.2-1.39-.23Z"/><path class="cls-2" d="M165,187.25c0,.6-.07.95-.19,1.05a2.74,2.74,0,0,1-1.23.15h-.41V174.33h.41a2.74,2.74,0,0,1,1.23.15c.12.09.19.44.19,1v4l-.08.49h3.23l-.06-.49v-5.16h.44a2.68,2.68,0,0,1,1.22.15c.12.09.19.44.19,1v12.93h-.4a2.85,2.85,0,0,1-1.26-.15c-.12-.1-.19-.45-.19-1.05v-5.12l.16-.41h-3.41l.16.45Z"/><path class="cls-2" d="M179,188.45a2.69,2.69,0,0,1-1.21-.16c-.14-.1-.26-.45-.38-1l-.67-3.31h-2.47l-.8,4.51H173a4,4,0,0,1-1.2-.11c-.17-.07-.25-.24-.25-.51s1-4.77,3-13.5h1.88l3.21,14.12Zm-3.61-10.55-.73,3.82-.15.33h2a.55.55,0,0,1-.1-.18l-.08-.19-.76-3.78Z"/><path class="cls-2" d="M181.64,188.45h-.47V174.31l2.81-.22a4.22,4.22,0,0,1,2.43.51c.17.13.31.25.43.36a1,1,0,0,1,.29.47l.16.55a2.87,2.87,0,0,1,.14,1v1.13c0,1.89-.27,3.06-.81,3.53a1.58,1.58,0,0,1-.92.38l3.12,6.45h-.65a3.25,3.25,0,0,1-1.33-.19,1.69,1.69,0,0,1-.65-.85l-2.41-5.36h-.92l.18.49,0,4.71q0,.9-.18,1.05A2.73,2.73,0,0,1,181.64,188.45Zm2.38-8.14c.7,0,1.13-.14,1.28-.43a3.24,3.24,0,0,0,.23-1.41c0-.66,0-1.07,0-1.25a3.92,3.92,0,0,0-.09-.61.74.74,0,0,0-.24-.46,1.87,1.87,0,0,0-1.17-.31h-1.16l.18.49v3.53l-.16.45Z"/><path class="cls-2" d="M196.55,186.7v1.75h-6.16V174.33h6V176h-4.22l.18.49v3l-.18.49h4v1.74h-4l.16.45v4l-.18.49Z"/></svg>