<?xml version="1.0" encoding="utf-8"?>
<!-- Generator: Adobe Illustrator 24.1.1, SVG Export Plug-In . SVG Version: 6.00 Build 0)  -->
<svg version="1.1" id="Ebene_1" xmlns="http://www.w3.org/2000/svg" xmlns:xlink="http://www.w3.org/1999/xlink" x="0px" y="0px"
	 width="388px" height="397px" viewBox="0 0 388 397" style="enable-background:new 0 0 388 397;" xml:space="preserve">
<style type="text/css">
	.st0{fill:#F8CC37;}
	.st1{fill:#FFFFFF;}
</style>
<circle class="st0" cx="156.6" cy="173.4" r="141.7"/>
<path class="st1" d="M243,259.4H141.2c0,0-25.1,19.2-38,28.6c0-5.4,4-28.6,4-28.6l-17.7,0c-5.7,0-10.4-4.7-10.4-10.4L75,97.3
	c0-5.7,4.7-10.4,10.4-10.4l157.9,12.5c5.7,0,10.2,4.7,10.2,10.4v139.2C253.6,254.7,248.7,259.4,243,259.4z"/>
<path d="M94.5,280.9c-0.4,0-0.8-0.1-1.1-0.3c-0.8-0.4-1.4-1.3-1.4-2.2c0-4.4,2.5-19.7,3.6-26.1H80.8c-7.1,0-12.9-5.8-12.9-12.9
	l-4-151.6c0-7.2,5.8-13,12.9-13c0.1,0,0.1,0,0.2,0l157.8,12.4c7.1,0.1,12.8,5.8,12.8,12.9l0,139.2c0,7-6.1,12.9-13.2,12.9H133.4
	c-4.1,3.1-25.8,19.7-37.4,28.2C95.5,280.8,95,280.9,94.5,280.9z M76.7,79.8c-4.3,0-7.8,3.6-7.8,7.9l4,151.6c0,4.4,3.6,8,7.9,8h17.7
	c0.7,0,1.4,0.3,1.9,0.9c0.5,0.6,0.7,1.3,0.6,2c-0.8,4.8-2.7,15.9-3.5,22.9c13.4-9.9,33.3-25.2,33.6-25.4c0.4-0.3,1-0.5,1.5-0.5
	h101.8c4.5,0,8.2-3.6,8.2-7.9l0-139.2c0-4.4-3.5-7.9-7.9-7.9c-0.1,0-0.1,0-0.2,0L76.7,79.8z"/>
<g>
	<path d="M126.1,144.6c-1,0.2-1.9,0.4-2.9,0.5c-1,0.1-2,0.1-3.2,0.1c-2.2-0.1-4.1-0.6-5.6-1.5c-1.5-0.9-2.8-2.2-3.8-3.9
		c-1-1.7-1.7-3.7-2.1-6.1c-0.5-2.4-0.7-5.2-0.7-8.2c0-3,0.2-5.7,0.6-8.1c0.4-2.4,1.1-4.4,2.1-6.1c1-1.6,2.2-2.9,3.8-3.7
		c1.6-0.8,3.4-1.1,5.7-1c1.3,0.1,2.4,0.2,3.2,0.4c0.9,0.2,1.6,0.4,2.4,0.7c0.2,0.1,0.3,0.2,0.3,0.5l-0.2,3.6c0,0.1,0,0.2-0.1,0.2
		c-0.1,0.1-0.2,0.1-0.3,0c-0.7-0.3-1.4-0.5-2.1-0.6c-0.7-0.1-1.4-0.2-2.3-0.3c-1.5-0.1-2.8,0.1-3.8,0.7c-1,0.5-1.8,1.4-2.4,2.6
		c-0.6,1.2-1,2.8-1.2,4.6c-0.2,1.9-0.3,4.1-0.3,6.7c0,2.4,0.2,4.6,0.4,6.4c0.3,1.8,0.7,3.4,1.3,4.6c0.6,1.2,1.4,2.2,2.4,2.8
		c1,0.7,2.3,1,3.8,1.1c0.8,0,1.6,0,2.3-0.1c0.7-0.1,1.4-0.2,2.1-0.4c0.1,0,0.3,0,0.5,0c0.2,0,0.2,0.1,0.3,0.3l0.3,3.4
		C126.3,144.3,126.2,144.5,126.1,144.6z"/>
	<path d="M147.5,109.5c0-0.4,0.2-0.5,0.5-0.5l3.9,0.3c0.4,0,0.6,0.2,0.6,0.6l0.3,35.9c0,0.4-0.2,0.5-0.5,0.5l-3.9-0.2
		c-0.4,0-0.6-0.2-0.6-0.6l-0.1-16.2c0-0.2-0.1-0.3-0.3-0.3l-10.6-0.6c-0.2,0-0.3,0.1-0.3,0.3l0.2,16.3c0,0.4-0.2,0.5-0.5,0.5
		l-3.9-0.2c-0.4,0-0.6-0.2-0.6-0.6l-0.4-36.4c0-0.4,0.2-0.5,0.5-0.5l3.9,0.3c0.4,0,0.6,0.2,0.6,0.6l0.1,15.1c0,0.2,0.1,0.3,0.3,0.3
		l10.6,0.7c0.2,0,0.3-0.1,0.3-0.3L147.5,109.5z"/>
	<path d="M159.9,110.3c0-0.4,0.2-0.5,0.6-0.5l14.8,1c0.4,0,0.6,0.2,0.6,0.6l0,3.3c0,0.4-0.2,0.5-0.6,0.5l-10.1-0.7
		c-0.2,0-0.3,0.1-0.3,0.3l0.1,10.7c0,0.2,0.1,0.3,0.3,0.3l9.5,0.6c0.4,0,0.6,0.2,0.6,0.6l0,3c0,0.4-0.2,0.5-0.6,0.5l-9.5-0.6
		c-0.2,0-0.3,0.1-0.3,0.3l0.1,11.8c0,0.2,0.1,0.3,0.3,0.3l10.8,0.6c0.3,0,0.5,0.2,0.5,0.6l0,3.4c0,0.4-0.2,0.5-0.5,0.5l-15.5-0.8
		c-0.4,0-0.6-0.2-0.6-0.6L159.9,110.3z"/>
	<path d="M199.1,148.2c-1,0.2-1.9,0.4-2.9,0.5c-1,0.1-2.1,0.1-3.2,0.1c-2.2-0.1-4.1-0.6-5.6-1.5c-1.5-0.9-2.8-2.1-3.7-3.7
		c-1-1.6-1.7-3.6-2.1-5.9c-0.4-2.3-0.7-4.9-0.7-7.9c0-2.9,0.2-5.5,0.6-7.8c0.4-2.3,1.1-4.2,2.1-5.8c1-1.6,2.2-2.7,3.8-3.5
		c1.6-0.8,3.5-1.1,5.7-0.9c1.3,0.1,2.4,0.2,3.2,0.4c0.8,0.2,1.6,0.4,2.4,0.7c0.2,0,0.3,0.2,0.3,0.5l-0.2,3.5c0,0.1,0,0.1-0.1,0.2
		c-0.1,0.1-0.2,0.1-0.3,0c-0.7-0.3-1.4-0.5-2.1-0.6c-0.7-0.1-1.4-0.2-2.3-0.3c-1.5-0.1-2.8,0.1-3.8,0.6c-1,0.5-1.8,1.4-2.4,2.5
		c-0.6,1.2-1,2.7-1.3,4.4c-0.2,1.8-0.3,3.9-0.3,6.4c0,2.3,0.1,4.4,0.4,6.2c0.2,1.8,0.7,3.2,1.3,4.4c0.6,1.2,1.4,2.1,2.4,2.7
		c1,0.6,2.3,1,3.8,1.1c0.8,0,1.6,0,2.3-0.1c0.7-0.1,1.4-0.2,2.1-0.3c0.1,0,0.3,0,0.5,0c0.2,0,0.2,0.1,0.2,0.3l0.2,3.3
		C199.4,148,199.3,148.1,199.1,148.2z"/>
	<path d="M209.1,149l-4-0.2c-0.4,0-0.6-0.2-0.6-0.6l-0.1-34.8c0-0.4,0.2-0.5,0.6-0.5l4,0.3c0.3,0,0.4,0.2,0.4,0.6l0,14.5
		c0,0.2,0.2,0.4,0.5,0.4c0.3,0,0.5-0.1,0.7-0.3l8.6-13.9c0.1-0.1,0.2-0.2,0.3-0.3c0.1-0.1,0.3-0.1,0.5-0.1l4.5,0.3
		c0.4,0,0.5,0.2,0.4,0.5l-9.6,14.5c-0.2,0.3-0.3,0.5-0.4,0.7c-0.1,0.2-0.1,0.3-0.1,0.5c0,0.2,0,0.4,0.1,0.6c0.1,0.2,0.2,0.4,0.3,0.7
		c0.4,0.7,0.8,1.5,1.4,2.4c0.6,1,1.2,2,1.9,3.1c0.7,1.1,1.3,2.3,2,3.4c0.7,1.2,1.4,2.3,2,3.4c0.6,1.1,1.2,2.1,1.7,3
		c0.5,0.9,0.9,1.7,1.2,2.2c0.1,0.2,0.1,0.3,0,0.4c-0.1,0.1-0.2,0.1-0.4,0.1l-4.6-0.2c-0.3,0-0.4-0.1-0.6-0.2
		c-0.1-0.1-0.2-0.2-0.3-0.3c-0.4-0.8-1-1.8-1.7-3.2c-0.7-1.3-1.5-2.7-2.4-4.2c-0.8-1.5-1.7-3-2.6-4.5c-0.9-1.5-1.7-2.8-2.4-4
		c-0.1-0.3-0.3-0.5-0.4-0.5c-0.1-0.1-0.2-0.1-0.5-0.1c-0.2,0-0.4,0-0.4,0.1c-0.1,0-0.1,0.1-0.1,0.3l0,15.7
		C209.5,148.9,209.4,149.1,209.1,149z"/>
	<path d="M143.1,193.2c0-0.4,0.2-0.5,0.5-0.5l14.7,0.3c0.4,0,0.6,0.2,0.6,0.6l0,3.3c0,0.4-0.2,0.5-0.5,0.5l-9.9-0.2
		c-0.2,0-0.3,0.1-0.3,0.3l0.1,12c0,0.2,0.1,0.3,0.3,0.3l9.3,0.1c0.4,0,0.5,0.2,0.6,0.5l0,3c0,0.4-0.2,0.5-0.5,0.5l-9.3-0.1
		c-0.2,0-0.3,0.1-0.3,0.3l0.1,15.1c0,0.4-0.2,0.5-0.5,0.5l-3.9,0c-0.4,0-0.5-0.2-0.6-0.5L143.1,193.2z"/>
	<path d="M177.4,220.4c0-0.2-0.2-0.4-0.4-0.4l-9.6-0.1c-0.3,0-0.5,0.1-0.5,0.4c-0.1,0.5-0.2,1.1-0.4,1.9c-0.2,0.8-0.4,1.7-0.5,2.5
		c-0.2,0.9-0.3,1.7-0.5,2.6c-0.2,0.8-0.3,1.5-0.4,1.9c-0.1,0.4-0.3,0.5-0.7,0.5l-4.1,0c-0.4,0-0.5-0.2-0.4-0.5
		c0.2-1.1,0.5-2.5,1-4.4c0.4-1.8,0.9-3.9,1.4-6.1c0.5-2.2,1-4.5,1.6-7c0.6-2.4,1.1-4.8,1.7-7.1c0.5-2.3,1-4.4,1.5-6.3
		c0.5-1.9,0.9-3.5,1.2-4.8c0.1-0.4,0.3-0.5,0.7-0.5l6.9,0.2c0.4,0,0.6,0.2,0.7,0.6c0.3,1.3,0.7,3,1.2,5.1c0.5,2,1,4.3,1.6,6.6
		c0.6,2.4,1.1,4.8,1.7,7.3c0.6,2.5,1.1,4.8,1.6,7c0.5,2.2,0.9,4.1,1.3,5.8c0.4,1.7,0.7,2.9,0.8,3.7c0.1,0.4,0,0.5-0.4,0.5l-4.4,0
		c-0.2,0-0.3,0-0.4-0.1c-0.1-0.1-0.1-0.2-0.2-0.5c-0.1-0.5-0.2-1.1-0.4-1.9c-0.2-0.8-0.4-1.7-0.6-2.5c-0.2-0.9-0.4-1.7-0.6-2.5
		C177.7,221.5,177.6,220.9,177.4,220.4z M176.3,215.9c0.3,0,0.4-0.1,0.4-0.4c-0.1-0.8-0.4-1.9-0.7-3.4c-0.3-1.5-0.6-3.1-1-4.8
		c-0.4-1.7-0.7-3.4-1.1-5.1c-0.4-1.7-0.7-3.1-0.9-4.3c-0.1-0.1-0.1-0.3-0.2-0.3c-0.1-0.1-0.2-0.1-0.5-0.1c-0.5,0-0.7,0.1-0.7,0.4
		c-0.3,1.1-0.6,2.5-1,4.2c-0.4,1.7-0.7,3.4-1.1,5.1c-0.4,1.7-0.7,3.3-1,4.8c-0.3,1.5-0.6,2.7-0.7,3.4c0,0.3,0.1,0.4,0.4,0.4
		L176.3,215.9z"/>
	<path d="M205.3,229.5c-0.9,0.3-1.9,0.5-2.9,0.6c-1,0.1-2,0.2-3.2,0.2c-2.2,0-4-0.4-5.6-1.2c-1.5-0.8-2.8-2-3.7-3.5
		c-1-1.6-1.6-3.5-2.1-5.8c-0.4-2.3-0.7-4.9-0.7-7.8c0-2.9,0.2-5.5,0.6-7.8c0.4-2.3,1.1-4.3,2.1-5.9c1-1.6,2.2-2.8,3.8-3.7
		c1.6-0.9,3.4-1.3,5.6-1.2c1.3,0,2.3,0.1,3.2,0.3c0.8,0.1,1.6,0.3,2.4,0.6c0.2,0,0.3,0.2,0.3,0.5l-0.2,3.5c0,0.1,0,0.1-0.1,0.2
		c-0.1,0.1-0.2,0.1-0.3,0c-0.7-0.2-1.4-0.4-2.1-0.5c-0.7-0.1-1.4-0.2-2.3-0.2c-1.5,0-2.7,0.2-3.7,0.8c-1,0.6-1.8,1.4-2.4,2.6
		c-0.6,1.2-1,2.7-1.2,4.5c-0.2,1.8-0.3,3.9-0.3,6.4c0,2.3,0.1,4.4,0.4,6.1c0.2,1.7,0.7,3.2,1.2,4.3c0.6,1.2,1.4,2,2.4,2.6
		c1,0.6,2.2,0.9,3.8,0.9c0.8,0,1.6-0.1,2.3-0.2c0.7-0.1,1.4-0.3,2.1-0.4c0.1,0,0.3,0,0.5,0c0.2,0,0.2,0.1,0.2,0.3l0.2,3.3
		C205.5,229.3,205.4,229.5,205.3,229.5z"/>
	<path d="M214.3,198.6c0-0.2-0.1-0.3-0.3-0.3l-5.7-0.1c-0.4,0-0.6-0.2-0.6-0.5l0-3.1c0-0.4,0.2-0.5,0.5-0.5l17,0.4
		c0.4,0,0.5,0.2,0.5,0.5l0,3.1c0,0.3-0.2,0.5-0.5,0.5l-5.7-0.1c-0.2,0-0.3,0.1-0.3,0.3l0,30.6c0,0.3-0.2,0.5-0.5,0.5l-3.8,0
		c-0.4,0-0.5-0.2-0.5-0.5L214.3,198.6z"/>
</g>
<g>
	<path d="M164.9,156.5c0-0.2-0.1-0.3-0.3-0.3l-5.7-0.3c-0.4,0-0.6-0.2-0.6-0.6l0-3.2c0-0.4,0.2-0.5,0.5-0.5l17.1,0.8
		c0.4,0,0.6,0.2,0.6,0.6l0,3.2c0,0.4-0.2,0.5-0.5,0.5l-5.7-0.3c-0.2,0-0.3,0.1-0.3,0.3l0.2,31.5c0,0.4-0.2,0.5-0.5,0.5l-3.8-0.1
		c-0.4,0-0.6-0.2-0.6-0.6L164.9,156.5z"/>
	<path d="M197.1,154c0-0.4,0.2-0.5,0.6-0.5l3.9,0.2c0.4,0,0.6,0.2,0.6,0.6l0.1,34.9c0,0.4-0.2,0.5-0.5,0.5l-3.8-0.1
		c-0.4,0-0.6-0.2-0.6-0.5l0-15.7c0-0.2-0.1-0.3-0.3-0.3l-10.6-0.4c-0.2,0-0.3,0.1-0.3,0.3l0.1,15.8c0,0.4-0.2,0.5-0.5,0.5l-3.8-0.1
		c-0.4,0-0.6-0.2-0.6-0.5l-0.2-35.3c0-0.4,0.2-0.5,0.5-0.5l3.9,0.2c0.4,0,0.6,0.2,0.6,0.6l0.1,14.7c0,0.2,0.1,0.3,0.3,0.3l10.6,0.4
		c0.2,0,0.3-0.1,0.3-0.3L197.1,154z"/>
	<path d="M209.5,154.5c0-0.4,0.2-0.5,0.6-0.5l14.7,0.7c0.4,0,0.6,0.2,0.6,0.5l0,3.2c0,0.3-0.2,0.5-0.6,0.5l-10.1-0.4
		c-0.2,0-0.3,0.1-0.3,0.3l0,10.4c0,0.2,0.1,0.3,0.3,0.3l9.4,0.3c0.4,0,0.5,0.2,0.5,0.5l0,2.9c0,0.3-0.2,0.5-0.5,0.5l-9.4-0.3
		c-0.2,0-0.3,0.1-0.3,0.3l0,11.5c0,0.2,0.1,0.3,0.3,0.3l10.8,0.3c0.3,0,0.5,0.2,0.5,0.5v3.3c0,0.3-0.2,0.5-0.5,0.5l-15.4-0.4
		c-0.4,0-0.6-0.2-0.6-0.5L209.5,154.5z"/>
</g>
<rect x="130.1" y="283.8" width="135.8" height="36.9"/>
<rect x="130.1" y="327" width="243" height="36.9"/>
<path class="st1" d="M147.4,292.6H143l0.3,0.9v19.6c0,1.1-0.1,1.7-0.3,1.9c-0.2,0.2-1,0.3-2.3,0.3h-0.9v-21.7l0.3-0.9h-4.3v-3h11.5
	V292.6z"/>
<path class="st1" d="M161.4,315.3c-1.2,0-1.9-0.1-2.2-0.3c-0.2-0.2-0.5-0.8-0.7-1.9l-1.2-6h-4.5l-1.5,8.2h-0.8
	c-1.1,0-1.9-0.1-2.2-0.2c-0.3-0.1-0.5-0.4-0.5-0.9s1.8-8.7,5.4-24.5h3.4l5.8,25.7H161.4z M154.8,296.1l-1.3,7l-0.3,0.6h3.7
	c0,0-0.1-0.1-0.2-0.3c-0.1-0.2-0.1-0.3-0.1-0.3l-1.4-6.9H154.8z"/>
<path class="st1" d="M168.7,291.8v21.3c0,1.1-0.1,1.7-0.3,1.9c-0.2,0.2-1,0.3-2.2,0.3h-0.7v-25.7h0.7c1.3,0,2,0.1,2.2,0.3
	C168.6,290,168.7,290.7,168.7,291.8z M177.2,289.6c0.3,0,0.5,0.1,0.7,0.3c0.2,0.1,0.3,0.4,0.3,0.6s-1.8,4.2-5.3,11.8l6.3,12.9H178
	c-1.2,0-2-0.1-2.4-0.3c-0.4-0.2-0.9-0.8-1.2-1.6l-5.2-11l6-12.7h0.5C176.5,289.6,176.9,289.6,177.2,289.6z"/>
<path class="st1" d="M193.2,312.1v3.2H182v-25.7h10.8v3h-7.7l0.3,0.9v5.5l-0.3,0.9h7.2v3.2h-7.2l0.3,0.8v7.3l-0.3,0.9H193.2z"/>
<path class="st1" d="M206.3,298.4c0,0.8-0.1,2.1-0.1,3.9c0,1.7,0,3,0.1,3.9c0,0.8,0.1,1.8,0.3,2.8c0.2,1.1,0.5,1.8,0.9,2.2
	s1,0.6,1.6,0.6c0.7,0,1.6-0.1,2.8-0.2c1.2-0.1,2-0.2,2.3-0.2v3.5c-0.2,0-0.9,0.1-2.1,0.3c-1.2,0.2-2.2,0.3-2.9,0.3s-1.4-0.1-1.9-0.2
	s-1.1-0.3-1.5-0.6s-0.8-0.6-1.1-1c-0.3-0.5-0.6-0.9-0.8-1.3c-0.2-0.4-0.4-0.9-0.5-1.7c-0.1-0.7-0.2-1.3-0.3-1.8s-0.1-1.2-0.2-2.1
	c0-0.9-0.1-1.7-0.1-2.2v-4.8c0-1.7,0.1-3,0.2-3.8c0.1-0.8,0.2-1.6,0.4-2.3c0.1-0.7,0.3-1.3,0.5-1.6c0.2-0.4,0.5-0.8,0.8-1.2
	c0.3-0.5,0.7-0.8,1.1-1c1-0.5,2.2-0.8,3.4-0.8l5,1.1c-0.2,1.4-0.5,2.2-1.1,2.6c-0.3,0.2-0.7,0.3-1.2,0.3c-0.5,0-1.1-0.1-1.9-0.2
	l-1-0.3c-0.7,0-1.2,0.2-1.6,0.6s-0.7,1.2-0.9,2.2S206.4,297.5,206.3,298.4z"/>
<path class="st1" d="M229.6,315.3c-1.2,0-1.9-0.1-2.2-0.3c-0.2-0.2-0.5-0.8-0.7-1.9l-1.2-6H221l-1.5,8.2h-0.8
	c-1.1,0-1.9-0.1-2.2-0.2c-0.3-0.1-0.5-0.4-0.5-0.9s1.8-8.7,5.4-24.5h3.4l5.8,25.7H229.6z M223,296.1l-1.3,7l-0.3,0.6h3.7
	c0,0-0.1-0.1-0.2-0.3c-0.1-0.2-0.1-0.3-0.1-0.3l-1.4-6.9H223z"/>
<path class="st1" d="M234.4,315.3h-0.9v-25.7l5.1-0.4c2.1,0,3.6,0.3,4.4,0.9c0.3,0.2,0.6,0.5,0.8,0.6s0.4,0.5,0.5,0.9l0.3,1
	c0.2,0.5,0.2,1,0.2,1.8v2.1c0,3.4-0.5,5.6-1.5,6.4c-0.4,0.4-1,0.6-1.7,0.7l5.7,11.7h-1.2c-1.2,0-2-0.1-2.4-0.3
	c-0.4-0.2-0.8-0.7-1.2-1.6l-4.4-9.7h-1.7l0.3,0.9l0,8.6c0,1.1-0.1,1.7-0.3,1.9C236.5,315.2,235.7,315.3,234.4,315.3z M238.8,300.5
	c1.3,0,2.1-0.3,2.3-0.8c0.3-0.5,0.4-1.4,0.4-2.6s0-1.9,0-2.3c0-0.3-0.1-0.7-0.2-1.1s-0.2-0.7-0.4-0.8c-0.5-0.4-1.2-0.6-2.1-0.6h-2.1
	l0.3,0.9v6.4l-0.3,0.8H238.8z"/>
<path class="st1" d="M261.5,312.1v3.2h-11.2v-25.7h10.8v3h-7.7l0.3,0.9v5.5l-0.3,0.9h7.2v3.2h-7.2l0.3,0.8v7.3l-0.3,0.9H261.5z"/>
<path class="st1" d="M148.5,338.4v1.4c0,1.3-0.1,2.2-0.2,2.8c-0.1,0.6-0.4,1.2-0.8,1.8c0.9,0.7,1.5,1.6,1.8,2.5s0.5,2.4,0.5,4.4
	c0,2-0.1,3.3-0.2,3.7c-0.1,0.5-0.3,0.9-0.4,1.3c-0.2,0.4-0.4,0.7-0.6,0.9c-0.2,0.2-0.5,0.4-0.9,0.7c-0.4,0.2-0.8,0.4-1.2,0.6
	c-1.1,0.3-2.3,0.4-3.7,0.4l-5.6-0.3v-25.7l4.9-0.4c2.1,0,3.6,0.3,4.5,0.9c0.3,0.2,0.6,0.5,0.8,0.6c0.2,0.2,0.4,0.5,0.5,0.9
	c0.1,0.4,0.3,0.7,0.3,1C148.4,336.4,148.5,337.2,148.5,338.4z M142.8,356c1.7,0,2.8-0.3,3.2-0.9c0.5-0.6,0.7-1.6,0.7-2.9
	s0-2.2-0.1-2.8s-0.2-1.2-0.5-1.7c-0.5-1.2-1.6-1.7-3.4-1.7h-2.5l0.3,0.7v8.6l-0.3,0.7H142.8z M142.1,343.3c1.4,0,2.3-0.2,2.7-0.6
	c0.4-0.4,0.5-1.4,0.5-3c0-1.6-0.2-2.7-0.6-3.3c-0.4-0.6-1.3-0.9-2.6-0.9h-1.6l0.3,0.7v6.3l-0.3,0.7H142.1z"/>
<path class="st1" d="M164.3,355.4v3.2h-11.2v-25.7h10.8v3h-7.7l0.3,0.9v5.5l-0.3,0.9h7.2v3.2h-7.2l0.3,0.8v7.3l-0.3,0.9H164.3z"/>
<path class="st1" d="M177.9,343.2v3.2h-7.2l0.3,0.8v11.4h-0.9c-1.3,0-2-0.1-2.3-0.3c-0.2-0.2-0.3-0.8-0.3-1.9v-23.5h10.8v3h-7.7
	l0.3,0.9v5.5l-0.3,0.9H177.9z"/>
<path class="st1" d="M188.1,358.8c-2.7,0-4.5-1-5.5-3.1c-1-2-1.4-5.4-1.4-10.1s0.5-8.1,1.5-10.1c1-2,2.8-3,5.4-3c2.6,0,4.4,1,5.4,3
	c1,2,1.5,5.4,1.5,10.1c0,4.7-0.5,8.1-1.4,10.1C192.6,357.8,190.8,358.8,188.1,358.8z M184.5,345.5c0,3.4,0.3,5.9,0.8,7.6
	c0.5,1.7,1.4,2.5,2.8,2.5s2.2-0.8,2.8-2.5s0.8-4.2,0.8-7.6c0-6.6-1.2-9.9-3.5-9.9C185.7,335.6,184.5,338.9,184.5,345.5z"/>
<path class="st1" d="M199.7,358.6h-0.9v-25.7l5.1-0.4c2.1,0,3.6,0.3,4.4,0.9c0.3,0.2,0.6,0.5,0.8,0.6c0.2,0.2,0.4,0.5,0.5,0.9l0.3,1
	c0.2,0.5,0.2,1,0.2,1.8v2.1c0,3.4-0.5,5.6-1.5,6.4c-0.4,0.4-1,0.6-1.7,0.7l5.7,11.7h-1.2c-1.2,0-2-0.1-2.4-0.3
	c-0.4-0.2-0.8-0.7-1.2-1.6l-4.4-9.7h-1.7l0.3,0.9l0,8.6c0,1.1-0.1,1.7-0.3,1.9C201.8,358.5,201,358.6,199.7,358.6z M204,343.8
	c1.3,0,2.1-0.3,2.3-0.8s0.4-1.4,0.4-2.6s0-1.9,0-2.3c0-0.3-0.1-0.7-0.2-1.1c-0.1-0.4-0.2-0.7-0.4-0.8c-0.5-0.4-1.2-0.6-2.1-0.6h-2.1
	l0.3,0.9v6.4l-0.3,0.8H204z"/>
<path class="st1" d="M226.8,355.4v3.2h-11.2v-25.7h10.8v3h-7.7l0.3,0.9v5.5l-0.3,0.9h7.2v3.2h-7.2l0.3,0.8v7.3l-0.3,0.9H226.8z"/>
<path class="st1" d="M246.4,332.9c0.9,0,1.4,0,1.7,0.1c0.3,0.1,0.4,0.3,0.4,0.7c0,0.4-1.6,4.6-4.7,12.5v12.3h-0.8
	c-1.3,0-2-0.1-2.3-0.3c-0.2-0.2-0.3-0.8-0.3-1.9v-10.2l-5.1-13.3h1.4c1,0,1.7,0.1,1.9,0.3c0.2,0.2,0.5,0.7,0.9,1.7l2.4,7.2h0.5
	l3-9.2H246.4z"/>
<path class="st1" d="M258,358.8c-2.7,0-4.5-1-5.5-3.1c-1-2-1.4-5.4-1.4-10.1s0.5-8.1,1.5-10.1c1-2,2.8-3,5.4-3c2.6,0,4.4,1,5.4,3
	c1,2,1.5,5.4,1.5,10.1c0,4.7-0.5,8.1-1.4,10.1C262.5,357.8,260.7,358.8,258,358.8z M254.4,345.5c0,3.4,0.3,5.9,0.8,7.6
	c0.5,1.7,1.4,2.5,2.8,2.5s2.2-0.8,2.8-2.5s0.8-4.2,0.8-7.6c0-6.6-1.2-9.9-3.5-9.9C255.6,335.6,254.4,338.9,254.4,345.5z"/>
<path class="st1" d="M278.2,347.9v-15h0.9c1.3,0,2,0.1,2.2,0.3c0.2,0.2,0.3,0.8,0.3,1.9v12.8c0,3.7-0.1,5.8-0.3,6.4
	c-0.2,0.6-0.4,1.2-0.6,1.8c-0.2,0.6-0.5,1-0.8,1.2c-0.3,0.2-0.7,0.5-1.1,0.8c-0.8,0.5-2,0.7-3.7,0.7c-1.4,0-2.4-0.1-2.9-0.4
	c-0.5-0.2-1-0.4-1.3-0.6c-0.3-0.2-0.6-0.4-0.8-0.8c-0.2-0.4-0.4-0.7-0.6-0.9c-0.2-0.2-0.3-0.6-0.4-1.2c-0.1-0.6-0.2-1-0.2-1.4
	s-0.1-0.9-0.1-1.7s0-1.4,0-1.8v-17.1h0.9c1.3,0,2,0.1,2.2,0.3c0.2,0.2,0.3,0.8,0.3,1.9V349c0,2.6,0.2,4.3,0.5,5.3
	c0.3,0.9,1.1,1.4,2.4,1.4c0.5,0,0.9-0.1,1.3-0.2c0.3-0.1,0.6-0.3,0.9-0.7c0.2-0.4,0.4-0.7,0.5-1c0.1-0.3,0.2-0.8,0.3-1.6
	C278.1,351.1,278.2,349.6,278.2,347.9z"/>
<path class="st1" d="M291.6,355c2.4,0.2,4.1,0.4,5.2,0.4s1.8-0.1,2.3-0.2c0.4-0.2,0.7-0.4,0.9-0.6c0.2-0.2,0.4-0.6,0.5-1
	c0.1-0.6,0.2-1.3,0.2-2.1s-0.2-1.6-0.6-2.2s-0.8-1.1-1.1-1.4c-0.3-0.3-1-0.9-1.9-1.6s-1.5-1.3-1.9-1.7c-0.4-0.3-0.9-0.9-1.6-1.6
	c-1.2-1.3-1.8-2.7-1.8-4.2c0-2.5,0.3-4.1,0.8-4.6c0.8-0.8,1.7-1.3,2.6-1.4s1.9-0.2,3-0.2l4.8,1c-0.2,1.4-0.5,2.2-0.8,2.4
	c-0.2,0.1-0.5,0.2-0.9,0.2s-1-0.1-1.6-0.2l-1.4-0.3c-1.4,0-2.3,0.3-2.6,0.9c-0.2,0.3-0.3,0.6-0.3,0.9c0,0.3-0.1,0.7-0.1,1.2
	c0,1,1.2,2.5,3.6,4.5c1.1,0.9,2,1.7,2.7,2.3s1.2,1.4,1.8,2.2c0.6,0.9,0.9,1.7,0.9,2.5s0,1.4,0,1.8c0,0.4-0.1,1-0.1,1.7
	c-0.1,0.7-0.2,1.3-0.4,1.7c-0.2,0.4-0.4,0.9-0.7,1.4c-0.3,0.5-0.7,0.9-1.2,1.2c-1.2,0.7-2.7,1-4.3,1c-1,0-2.1-0.1-3.3-0.3
	s-2.1-0.4-2.5-0.4V355z"/>
<path class="st1" d="M311.2,356.4c0,1.1-0.1,1.7-0.3,1.9c-0.2,0.2-1,0.3-2.2,0.3h-0.7v-25.7h0.7c1.3,0,2,0.1,2.2,0.3
	c0.2,0.2,0.3,0.8,0.3,1.9v7.2l-0.1,0.9h5.9l-0.1-0.9v-9.4h0.8c1.3,0,2,0.1,2.2,0.3c0.2,0.2,0.3,0.8,0.3,1.9v23.5h-0.7
	c-1.3,0-2.1-0.1-2.3-0.3c-0.2-0.2-0.3-0.8-0.3-1.9v-9.3l0.3-0.7h-6.2l0.3,0.8V356.4z"/>
<path class="st1" d="M336.5,358.6c-1.2,0-1.9-0.1-2.2-0.3c-0.2-0.2-0.5-0.8-0.7-1.9l-1.2-6h-4.5l-1.5,8.2h-0.8
	c-1.1,0-1.9-0.1-2.2-0.2c-0.3-0.1-0.5-0.4-0.5-0.9c0-0.5,1.8-8.7,5.4-24.5h3.4l5.8,25.7H336.5z M330,339.4l-1.3,7l-0.3,0.6h3.7
	c0,0-0.1-0.1-0.2-0.3c-0.1-0.2-0.1-0.3-0.1-0.3l-1.4-6.9H330z"/>
<path class="st1" d="M341.4,358.6h-0.9v-25.7l5.1-0.4c2.1,0,3.6,0.3,4.4,0.9c0.3,0.2,0.6,0.5,0.8,0.6c0.2,0.2,0.4,0.5,0.5,0.9l0.3,1
	c0.2,0.5,0.2,1,0.2,1.8v2.1c0,3.4-0.5,5.6-1.5,6.4c-0.4,0.4-1,0.6-1.7,0.7l5.7,11.7h-1.2c-1.2,0-2-0.1-2.4-0.3
	c-0.4-0.2-0.8-0.7-1.2-1.6l-4.4-9.7h-1.7l0.3,0.9l0,8.6c0,1.1-0.1,1.7-0.3,1.9C343.4,358.5,342.7,358.6,341.4,358.6z M345.7,343.8
	c1.3,0,2.1-0.3,2.3-0.8s0.4-1.4,0.4-2.6s0-1.9,0-2.3c0-0.3-0.1-0.7-0.2-1.1c-0.1-0.4-0.2-0.7-0.4-0.8c-0.5-0.4-1.2-0.6-2.1-0.6h-2.1
	l0.3,0.9v6.4l-0.3,0.8H345.7z"/>
<path class="st1" d="M368.5,355.4v3.2h-11.2v-25.7h10.8v3h-7.7l0.3,0.9v5.5l-0.3,0.9h7.2v3.2h-7.2l0.3,0.8v7.3l-0.3,0.9H368.5z"/>
</svg>
