<svg xmlns="http://www.w3.org/2000/svg" viewBox="0 0 283.46 283.46"><defs><style>.cls-1{fill:#f7cc36;}.cls-2{fill:#fff;}</style></defs><title>RGB_Logo_Check-Den-Fakt</title><g id="Logo"><circle class="cls-1" cx="141.73" cy="141.73" r="141.73"/><path class="cls-2" d="M228.16,227.72H126.38s-25.06,19.25-38,28.64c0-5.37,4-28.64,4-28.64H74.64a10.44,10.44,0,0,1-10.42-10.41l-4-151.69A10.45,10.45,0,0,1,70.62,55.2L228.53,67.65a10.27,10.27,0,0,1,10.2,10.42V217.31A10.57,10.57,0,0,1,228.16,227.72Z"/><path d="M79.66,249.31a2.47,2.47,0,0,1-1.13-.27,2.51,2.51,0,0,1-1.37-2.23c0-4.4,2.48-19.65,3.57-26.14H66A12.93,12.93,0,0,1,53,207.76L49,56.13a13,13,0,0,1,12.92-13h.19L220,55.6a12.92,12.92,0,0,1,12.78,12.92V207.76a13.26,13.26,0,0,1-13.25,12.91H118.55c-4.09,3.14-25.75,19.72-37.42,28.17A2.54,2.54,0,0,1,79.66,249.31ZM61.85,48.15A7.93,7.93,0,0,0,54,56.07l4,151.62a7.94,7.94,0,0,0,7.92,8H83.69a2.5,2.5,0,0,1,2.46,2.93c-.83,4.82-2.66,15.92-3.52,23C96,231.68,116,216.36,116.18,216.19a2.47,2.47,0,0,1,1.52-.52H219.48a8.19,8.19,0,0,0,8.25-7.91V68.52a7.91,7.91,0,0,0-7.88-7.92h-.2Z"/></g></svg>